<?xml version="1.0" standalone="no"?>
<!DOCTYPE svg PUBLIC "-//W3C//DTD SVG 20010904//EN"
 "http://www.w3.org/TR/2001/REC-SVG-20010904/DTD/svg10.dtd">
<svg version="1.0" xmlns="http://www.w3.org/2000/svg"
 width="1310.000000pt" height="1310.000000pt" viewBox="0 0 1310.000000 1310.000000"
 preserveAspectRatio="xMidYMid meet">
<metadata>
Created by potrace 1.14, written by Peter Selinger 2001-2017
</metadata>
<g transform="translate(0.000000,1310.000000) scale(0.100000,-0.100000)"
fill="#000000" stroke="none">
<path d="M5300 13055 c0 -8 5 -15 12 -15 6 0 3 -9 -7 -20 -14 -15 -21 -17 -26
-8 -6 9 -11 9 -22 -1 -10 -8 -17 -8 -21 -2 -4 6 -14 7 -22 4 -9 -3 -20 0 -24
7 -4 7 -12 10 -18 6 -13 -8 -22 -46 -10 -46 5 0 6 -5 2 -11 -4 -7 -7 -26 -8
-43 -1 -21 -7 -32 -19 -34 -17 -3 -17 -1 -6 19 8 15 8 24 1 27 -5 1 -8 11 -5
22 4 15 1 18 -18 13 -17 -5 -20 -3 -14 8 6 11 5 11 -4 3 -10 -9 -10 -17 -1
-34 9 -18 9 -25 -2 -35 -21 -20 -99 -35 -120 -24 -12 6 -25 6 -37 -1 -24 -12
-31 -13 -31 -2 0 5 12 14 26 21 14 6 24 17 21 24 -6 18 -49 8 -78 -19 -14 -13
-31 -24 -37 -24 -7 0 3 14 23 31 19 17 33 35 30 40 -3 4 -23 7 -45 5 -23 -2
-41 1 -43 8 -3 7 -12 4 -23 -8 -13 -12 -15 -20 -7 -23 7 -2 9 -11 6 -19 -3 -8
1 -14 8 -14 9 0 10 -3 2 -11 -7 -7 -89 -12 -228 -15 -186 -3 -216 -2 -211 11
8 21 -7 26 -40 15 -16 -5 -46 -11 -66 -13 -31 -4 -38 -1 -38 14 0 31 -20 31
-49 0 -18 -19 -58 -41 -108 -59 -202 -74 -317 -196 -357 -377 -27 -122 -26
-118 -42 -104 -8 6 -15 8 -15 3 -1 -5 -3 -19 -4 -32 -1 -13 -10 -29 -20 -36
-10 -7 -16 -20 -13 -27 3 -8 0 -23 -8 -34 -8 -10 -14 -13 -14 -7 0 7 -5 12
-12 12 -6 0 -8 -3 -5 -6 3 -4 2 -15 -4 -25 -8 -16 -6 -21 12 -27 l22 -9 -21
-21 c-12 -12 -23 -25 -24 -29 -6 -26 -23 -63 -29 -63 -13 0 3 -39 18 -42 11
-2 9 -10 -10 -35 -13 -18 -27 -30 -30 -27 -3 3 -11 -5 -18 -18 -11 -21 -11
-22 4 -9 15 11 17 11 17 -2 0 -8 -7 -20 -15 -27 -8 -7 -23 -31 -33 -54 -11
-22 -26 -47 -35 -55 -10 -7 -17 -21 -17 -30 0 -16 -83 -149 -100 -161 -4 -3
-12 -15 -18 -26 -15 -29 -170 -208 -184 -213 -7 -2 -9 3 -5 13 4 9 1 16 -4 16
-6 0 -9 -9 -6 -20 4 -14 -2 -25 -19 -36 -13 -9 -24 -21 -24 -26 0 -23 -135
-156 -147 -145 -3 4 0 13 7 22 17 21 8 27 -24 19 -18 -4 -26 -12 -24 -23 2 -8
-5 -24 -14 -33 -10 -10 -15 -24 -12 -31 7 -19 -25 -45 -35 -29 -5 8 -16 6 -39
-8 -34 -21 -40 -35 -19 -43 13 -4 -167 -127 -188 -127 -7 0 -18 -7 -25 -15
-15 -18 -67 -20 -73 -2 -3 9 -7 9 -20 -2 -23 -19 -21 -34 4 -28 13 3 19 1 16
-6 -2 -7 -12 -13 -23 -15 -10 -2 -29 -8 -41 -14 -27 -13 -31 -10 -36 23 -2 13
-10 24 -18 24 -10 0 -13 -12 -11 -45 l3 -45 -103 -51 c-57 -28 -137 -63 -178
-77 -41 -14 -92 -33 -113 -42 -35 -15 -241 -65 -266 -65 -6 0 -11 7 -11 15 0
22 -25 18 -57 -9 -16 -13 -64 -38 -108 -55 -165 -64 -266 -186 -296 -355 -8
-46 -19 -76 -31 -84 -22 -16 -24 -42 -2 -42 11 0 14 -5 10 -16 -3 -9 -6 -32
-7 -52 0 -20 -3 -31 -6 -24 -5 13 -33 17 -34 5 -4 -60 -2 -123 4 -123 4 0 3
-10 -4 -22 -6 -11 -13 -59 -15 -106 -3 -74 -2 -83 11 -72 24 20 19 -12 -6 -41
-16 -19 -19 -32 -15 -61 5 -29 2 -39 -11 -47 -10 -6 -12 -11 -5 -11 15 0 16
-27 2 -32 -14 -4 -20 -88 -7 -88 5 0 7 -14 5 -30 -3 -17 -1 -33 3 -35 4 -3 3
-22 -1 -42 -5 -20 -7 -59 -4 -85 4 -31 2 -48 -5 -48 -6 0 -11 -7 -11 -15 0 -8
5 -15 10 -15 13 0 13 -47 -1 -55 -6 -4 -8 -26 -4 -58 4 -29 2 -63 -3 -77 -5
-13 -5 -40 -1 -58 4 -19 3 -45 -1 -58 -9 -22 -11 -50 -8 -119 0 -16 0 -50 -1
-75 0 -25 -1 -52 -1 -60 0 -8 -2 -55 -5 -105 -7 -100 -7 -143 -1 -194 2 -19 0
-45 -5 -58 -4 -12 -5 -22 -1 -22 19 3 21 -3 7 -25 -10 -14 -12 -27 -6 -30 13
-8 3 -40 -20 -65 -11 -12 -17 -21 -13 -21 3 0 2 -6 -3 -12 -6 -7 -13 -25 -17
-40 -3 -14 -9 -34 -12 -45 -3 -10 3 -3 15 15 25 39 43 35 31 -7 -4 -16 -6 -31
-4 -34 3 -2 -11 -12 -31 -21 -41 -20 -46 -36 -10 -36 25 0 33 -14 15 -25 -5
-3 -10 -10 -10 -16 0 -14 26 -11 40 6 7 8 16 15 20 15 12 0 4 -44 -9 -48 -16
-5 18 -31 42 -32 9 0 17 -7 17 -15 0 -14 -11 -19 -26 -12 -3 1 -10 -6 -15 -15
-7 -13 -1 -35 22 -85 40 -89 41 -98 19 -138 -10 -18 -16 -36 -13 -39 4 -3 8
-36 10 -73 5 -105 9 -136 22 -168 7 -16 13 -61 13 -100 0 -38 4 -79 8 -90 4
-11 2 -36 -5 -55 -16 -46 -12 -81 15 -127 14 -25 18 -38 10 -43 -6 -4 -10 -13
-8 -20 2 -7 -7 -19 -19 -25 l-23 -12 25 -13 c24 -13 24 -14 5 -27 -26 -18 -26
-37 0 -30 21 5 27 -7 9 -19 -7 -4 -7 -9 -2 -13 15 -9 33 -70 26 -86 -3 -9 0
-22 7 -30 6 -8 9 -19 6 -24 -4 -5 -1 -13 5 -17 6 -3 9 -19 5 -34 -3 -19 0 -33
10 -41 8 -7 13 -17 11 -23 -7 -18 12 -168 23 -181 5 -7 8 -40 6 -75 -3 -55 -1
-63 16 -68 13 -3 18 -12 16 -26 -1 -11 1 -27 6 -34 4 -7 5 -16 2 -19 -3 -3 -1
-12 5 -20 9 -10 4 -16 -21 -27 l-32 -13 26 -7 c21 -5 26 -12 26 -35 0 -29 -22
-61 -41 -61 -13 0 -3 -69 12 -87 6 -7 8 -13 4 -13 -4 0 -2 -7 5 -15 7 -8 16
-13 20 -10 4 3 10 -1 13 -9 4 -10 -4 -18 -24 -25 -40 -14 -37 -31 5 -31 38 0
57 -17 35 -31 -9 -6 -18 -3 -26 8 -12 15 -13 15 -13 -4 0 -15 13 -27 45 -43
40 -19 44 -24 33 -38 -7 -9 -8 -13 -2 -9 7 4 11 -4 12 -21 3 -86 4 -91 23 -97
10 -4 19 -12 19 -19 0 -21 -40 -67 -67 -77 -13 -5 -21 -14 -18 -19 5 -8 12 -7
22 1 12 10 16 10 23 -1 7 -11 14 -12 35 -2 14 7 28 12 30 12 10 0 4 -37 -7
-48 -9 -9 -8 -16 4 -29 9 -10 20 -30 23 -45 4 -16 11 -26 15 -23 13 8 22 -13
15 -35 -4 -11 -13 -20 -21 -20 -23 0 -16 -24 16 -55 16 -16 30 -38 30 -50 0
-11 5 -26 11 -32 6 -6 9 -19 7 -29 -2 -11 2 -24 10 -30 8 -5 15 -32 16 -60 1
-28 10 -61 19 -74 9 -14 17 -32 17 -41 0 -9 7 -22 15 -29 8 -6 14 -15 13 -18
-1 -4 2 -15 6 -24 4 -9 3 -26 -3 -37 -12 -21 -4 -43 28 -83 7 -9 11 -23 8 -30
-2 -7 6 -27 19 -44 17 -23 20 -34 12 -42 -9 -9 -2 -16 26 -27 29 -12 35 -19
27 -29 -18 -22 9 -133 37 -150 6 -3 13 -24 17 -46 5 -27 15 -46 32 -57 22 -14
23 -18 9 -31 -13 -14 -12 -18 9 -44 14 -16 26 -37 27 -46 0 -9 2 -21 2 -27 1
-5 14 -29 29 -53 31 -48 50 -89 52 -113 1 -9 6 -23 11 -30 5 -8 9 -20 10 -28
2 -7 12 -24 24 -36 12 -13 19 -28 16 -33 -3 -5 3 -12 13 -15 14 -3 18 -11 14
-26 -3 -12 -1 -21 6 -21 6 0 11 -7 11 -16 0 -11 6 -14 20 -9 23 7 28 -13 8
-33 -16 -16 -2 -28 15 -14 16 14 27 6 27 -20 0 -11 5 -18 13 -15 13 4 50 -80
41 -95 -3 -4 2 -11 10 -14 9 -3 16 -12 16 -20 0 -8 4 -14 9 -14 19 0 42 -32
36 -51 -5 -14 -2 -17 9 -13 11 4 16 0 16 -12 1 -22 33 -64 49 -64 6 0 11 -7
11 -15 0 -8 5 -15 10 -15 6 0 10 -9 10 -19 0 -10 7 -21 15 -25 8 -3 15 -16 15
-30 0 -13 5 -26 12 -28 6 -2 13 -15 15 -28 2 -13 11 -32 20 -42 9 -10 12 -18
7 -18 -5 0 6 -10 24 -21 17 -12 32 -27 32 -35 0 -8 4 -14 9 -14 9 0 37 -71 32
-78 -2 -2 12 -17 30 -32 17 -16 33 -39 34 -52 1 -13 3 -29 4 -35 0 -7 9 -13
19 -13 28 0 49 -17 36 -30 -9 -9 -5 -19 15 -38 14 -15 30 -27 35 -27 11 0 25
-37 19 -48 -2 -4 1 -7 6 -7 6 0 11 -7 11 -16 0 -8 4 -13 9 -10 11 7 65 -62 66
-86 2 -21 15 -38 15 -19 0 7 5 9 10 6 6 -3 10 -17 10 -31 0 -14 6 -27 14 -30
8 -3 17 -16 20 -30 7 -26 52 -77 79 -87 9 -3 17 -15 17 -25 0 -22 37 -66 63
-75 9 -4 17 -13 17 -21 0 -7 7 -17 16 -20 8 -3 13 -10 10 -14 -3 -5 9 -25 27
-45 18 -19 37 -42 44 -49 6 -7 32 -33 57 -57 25 -24 46 -49 46 -55 0 -6 17
-22 37 -36 44 -30 93 -78 93 -91 0 -5 4 -9 9 -9 5 0 13 -9 16 -20 4 -13 18
-23 36 -27 16 -3 29 -11 28 -17 -3 -25 2 -34 22 -39 14 -4 20 -11 16 -20 -5
-14 30 -47 66 -60 9 -3 17 -10 17 -15 0 -5 25 -26 55 -46 30 -21 57 -45 60
-54 3 -10 20 -24 38 -32 17 -8 32 -22 32 -30 1 -8 7 -14 14 -12 7 1 15 -6 18
-17 3 -11 21 -27 41 -37 21 -9 41 -23 45 -30 4 -8 15 -14 24 -14 8 0 23 -11
34 -24 10 -13 32 -29 49 -36 16 -7 30 -16 30 -21 0 -5 12 -14 26 -19 14 -6 23
-14 20 -19 -4 -5 6 -12 22 -16 17 -3 52 -32 91 -75 35 -38 67 -67 72 -65 4 3
10 1 14 -5 3 -5 19 -10 36 -10 16 0 29 -5 29 -10 0 -6 6 -10 13 -9 26 3 36 -2
31 -16 -4 -10 0 -15 13 -15 10 0 26 -9 36 -20 9 -11 28 -20 41 -20 14 0 31 -8
38 -19 8 -11 22 -17 36 -14 17 2 25 -2 29 -17 3 -10 15 -22 27 -26 11 -4 24
-11 27 -16 3 -5 17 -10 31 -11 15 -1 36 -14 48 -29 14 -19 35 -30 62 -34 22
-4 42 -13 45 -20 3 -8 11 -14 19 -14 15 0 26 -5 89 -42 22 -13 50 -23 61 -23
12 -1 29 -6 37 -14 9 -7 24 -14 34 -16 10 -2 19 -4 21 -5 3 -3 19 -7 32 -9 6
0 10 -8 10 -16 0 -9 9 -15 21 -15 11 0 32 -9 46 -20 14 -11 30 -17 35 -14 5 3
17 -1 26 -9 9 -8 27 -18 40 -21 12 -4 22 -11 22 -15 0 -5 21 -14 48 -21 26 -6
55 -19 65 -27 9 -9 17 -13 17 -10 0 7 55 -12 117 -39 17 -8 36 -14 41 -14 6 0
12 -4 14 -9 2 -6 26 -15 53 -22 28 -6 58 -15 67 -20 10 -5 25 -9 33 -9 8 0 20
-9 27 -19 9 -14 16 -17 29 -11 12 7 21 5 29 -5 6 -7 17 -12 24 -9 6 2 38 -5
71 -17 33 -11 67 -22 75 -23 8 -1 42 -12 74 -25 85 -32 254 -69 319 -71 11 0
15 -5 11 -11 -11 -19 365 -1 419 20 15 6 27 9 27 6 0 -2 17 3 38 12 20 9 53
18 72 20 19 3 52 13 73 24 20 10 37 16 37 12 0 -4 5 -2 12 5 7 7 20 12 30 12
10 0 35 7 56 16 40 18 53 22 94 28 15 3 36 7 47 11 11 3 28 8 38 10 10 2 32 9
48 16 17 7 40 14 52 15 12 2 32 8 45 16 13 7 25 13 28 13 10 3 61 25 102 45
23 11 49 20 58 20 9 0 20 3 24 7 4 5 31 14 59 21 68 16 66 16 112 38 22 10 42
22 43 27 2 4 12 7 22 7 10 0 20 7 24 15 3 8 12 12 21 9 8 -3 15 -1 15 4 0 10
60 44 83 48 4 1 8 2 10 3 1 2 13 5 26 7 14 2 32 11 40 18 31 27 95 55 129 58
8 1 19 12 25 25 7 16 16 22 28 18 9 -3 20 -1 24 5 3 5 14 10 25 10 10 0 20 7
24 15 3 8 13 15 23 15 10 0 24 9 31 20 7 12 18 20 25 18 7 -1 23 4 35 11 13 7
37 14 54 17 33 4 61 22 53 35 -6 8 108 79 128 79 7 0 21 14 32 30 11 17 34 37
50 46 57 29 75 41 95 59 11 10 20 14 20 10 0 -5 13 4 29 19 15 15 38 28 50 29
11 1 21 7 21 14 0 7 4 13 9 13 5 0 22 14 38 30 15 17 35 30 44 30 8 0 25 9 36
19 12 11 23 18 25 16 2 -3 21 0 41 6 33 9 36 13 31 35 -6 24 17 64 37 64 15 0
124 54 128 63 1 4 15 20 30 34 14 15 31 40 37 57 6 17 18 31 26 31 20 0 48 24
48 41 0 7 10 19 23 25 25 14 53 42 112 114 63 78 115 127 128 122 7 -2 19 10
27 26 8 17 38 49 67 72 28 22 54 48 58 57 3 10 33 45 66 79 32 33 59 64 59 68
0 4 12 20 28 34 50 50 67 70 87 106 15 26 27 35 43 34 17 -2 22 2 22 21 0 14
16 40 40 65 22 22 40 46 40 51 0 6 7 10 15 10 8 0 15 6 15 13 0 8 11 24 25 37
13 12 23 26 20 29 -2 4 10 17 26 30 16 13 26 27 23 32 -9 15 6 49 22 49 8 0
14 9 14 20 0 11 8 28 18 38 9 9 35 42 57 72 21 30 47 62 57 71 10 9 18 23 18
31 0 9 6 21 14 28 8 6 16 21 18 33 2 15 9 21 21 19 9 -2 17 3 17 11 0 8 6 20
14 26 8 7 14 20 13 29 -1 18 31 72 43 72 8 0 62 107 66 130 2 8 9 19 16 25 7
5 15 24 16 40 4 34 13 46 19 28 7 -19 31 -16 42 6 8 15 7 20 -5 25 -8 3 -12
11 -9 17 4 6 14 8 22 4 14 -5 14 -3 2 11 -11 14 -11 18 2 28 9 6 19 23 22 38
4 15 15 29 25 33 9 3 30 16 46 30 22 17 27 27 19 37 -17 21 -23 58 -9 58 24 0
49 27 51 56 1 20 6 28 17 26 12 -2 16 11 21 60 3 35 11 67 19 73 17 12 33 49
18 40 -19 -12 -10 12 14 37 24 27 38 53 41 78 2 22 27 70 36 70 15 0 39 56 29
66 -6 6 0 20 15 36 17 18 21 29 14 34 -8 4 -3 11 12 20 13 7 27 10 31 8 4 -3
18 0 30 7 22 12 22 12 2 28 -19 16 -21 26 -6 61 6 16 9 28 11 48 0 6 7 12 15
12 14 0 26 21 26 46 0 8 -9 14 -21 14 -27 0 -20 21 12 37 19 10 24 21 25 54 1
23 -4 43 -11 45 -7 3 -10 16 -7 29 2 14 8 22 13 19 5 -3 9 2 9 10 0 9 -5 16
-12 16 -6 0 -4 8 7 20 9 10 20 34 24 51 4 18 13 35 20 37 10 3 12 0 8 -12 -4
-9 -3 -15 2 -12 10 6 42 72 45 92 1 7 10 22 20 33 12 14 16 28 12 45 -3 14 -1
28 4 31 6 4 8 11 4 16 -3 5 13 27 36 48 39 36 48 67 16 55 -17 -6 -31 12 -16
21 11 7 14 56 3 53 -14 -5 -15 6 -3 37 15 36 41 146 47 197 3 21 9 35 14 32 5
-3 7 -10 4 -15 -4 -5 -2 -9 3 -9 5 0 14 11 20 24 8 19 8 25 -2 29 -16 7 -8 61
23 151 12 33 21 70 21 83 0 14 4 21 10 18 6 -3 10 -1 10 4 0 6 -4 11 -10 11
-19 0 -10 37 15 64 19 21 22 30 14 44 -8 12 -6 26 5 52 8 19 15 29 16 21 0
-11 3 -11 15 -1 8 6 19 9 24 6 5 -4 12 -2 16 3 8 13 -16 51 -32 51 -16 0 -17
15 -3 40 8 16 7 18 -4 14 -11 -4 -13 0 -9 15 7 27 23 37 33 21 6 -9 13 -9 28
-1 11 6 32 11 46 11 14 0 26 5 26 10 0 6 -18 10 -40 10 -37 0 -45 7 -41 33 10
62 9 77 -5 77 -12 0 -13 6 -8 23 5 12 8 45 9 72 0 28 4 56 9 63 11 18 29 130
28 177 -1 22 4 55 10 74 6 19 12 82 13 140 2 58 8 120 15 136 7 17 13 46 15
65 6 71 16 147 27 212 10 60 13 67 32 64 30 -5 61 13 47 27 -15 15 14 46 37
40 12 -3 18 2 18 15 0 17 -3 17 -26 5 -31 -16 -41 2 -12 23 19 13 19 17 7 41
-17 32 -14 36 22 37 16 1 27 4 26 9 -2 4 -3 14 -3 22 0 8 -9 15 -20 15 -24 0
-26 13 -5 30 23 19 18 33 -9 28 -16 -3 -27 0 -31 10 -3 8 -12 11 -20 8 -11 -4
-15 1 -15 19 0 13 5 27 10 30 14 9 12 25 -2 25 -10 0 -13 30 -14 113 -1 61 -3
157 -4 213 -1 60 2 110 9 122 15 29 14 42 -5 42 -13 0 -15 12 -13 73 1 39 6
77 11 84 6 7 8 18 6 25 -3 7 1 33 9 57 17 57 16 71 -2 71 -11 0 -14 10 -11 43
2 23 4 44 5 46 1 2 7 -2 15 -8 11 -9 15 -8 20 5 4 10 1 21 -6 25 -9 6 -8 12 5
27 24 26 21 35 -8 30 -29 -6 -31 -1 -10 28 8 12 12 24 9 27 -13 13 9 65 31 77
28 15 33 38 11 46 -8 3 -14 13 -14 22 0 9 -2 24 -6 33 -5 11 1 21 18 33 20 13
26 25 26 54 0 21 -6 47 -14 58 -9 11 -12 30 -9 47 4 20 2 27 -10 27 -9 0 -19
-4 -22 -10 -14 -22 -25 -8 -22 30 2 22 -1 42 -7 44 -6 3 -1 13 12 22 12 9 22
24 22 33 0 14 2 14 10 1 7 -11 10 -7 10 17 0 17 -4 33 -9 35 -5 2 -11 9 -13
17 -2 10 6 15 27 15 25 1 30 5 30 26 0 16 -8 29 -23 36 -20 10 -21 12 -6 18
14 5 16 16 11 66 -5 40 -3 61 5 66 7 5 3 11 -13 17 l-24 10 28 10 c15 6 27 17
27 24 0 16 -5 16 -31 3 -18 -10 -19 -8 -15 24 3 27 1 33 -12 32 -9 -2 -27 10
-39 25 -28 33 -23 69 13 98 13 10 24 24 24 30 0 14 -6 14 -31 0 -18 -9 -19 -7
-18 28 1 21 -2 49 -6 62 -7 20 -5 23 7 18 10 -3 25 4 39 19 18 20 20 24 6 24
-13 0 -45 39 -39 48 8 11 -2 22 -18 22 -11 0 -20 5 -20 10 0 6 8 10 18 10 17
0 82 74 82 93 0 5 -13 6 -30 2 -35 -8 -37 -3 -9 24 16 15 19 24 11 37 -9 16
-10 16 -20 -3 -6 -11 -21 -23 -32 -26 -18 -5 -20 0 -20 44 0 48 0 48 29 43 23
-5 29 -2 34 17 8 30 0 41 -25 33 -16 -5 -20 -3 -15 9 3 9 -4 19 -19 27 -22 13
-23 15 -9 36 21 32 19 37 -10 30 -14 -4 -25 -2 -25 3 0 15 -55 30 -73 20 -13
-8 -25 0 -56 31 -28 29 -59 47 -114 67 -45 15 -77 33 -80 42 -2 9 -16 17 -32
19 -16 1 -36 9 -45 17 -10 9 -24 13 -35 9 -11 -5 -21 -1 -27 9 -10 19 -43 23
-53 7 -3 -5 -13 -10 -22 -10 -13 0 -13 3 -3 15 11 13 10 14 -4 9 -12 -4 -16 0
-16 15 0 24 -28 28 -60 9 -15 -10 -29 -9 -72 6 -29 11 -61 25 -70 33 -9 8 -22
12 -27 8 -6 -3 -11 -2 -11 4 0 5 5 13 10 16 15 9 12 35 -5 35 -7 0 -19 -8 -24
-17 -7 -13 -13 -14 -18 -7 -5 6 -23 15 -40 19 -27 5 -33 11 -33 32 0 24 -2 25
-37 20 -31 -5 -45 -1 -76 20 -47 33 -64 61 -43 69 8 3 19 4 23 1 5 -3 17 1 28
10 19 14 20 15 1 28 -11 9 -30 12 -49 8 -20 -4 -28 -3 -24 4 4 6 1 13 -7 16
-15 6 -36 -11 -36 -29 0 -10 -21 -24 -36 -24 -13 0 0 28 23 52 29 30 22 36
-17 13 -30 -17 -54 -19 -45 -4 12 18 17 69 7 69 -5 0 -19 -12 -33 -26 l-24
-26 25 7 c22 7 23 6 11 -8 -15 -19 -59 -14 -77 9 -6 8 -14 14 -18 14 -3 0 -24
12 -45 26 -51 33 -57 56 -20 78 34 20 29 41 -7 32 -13 -4 -24 -2 -24 3 0 5
-19 7 -41 4 -41 -6 -42 -6 -35 20 7 30 4 32 -24 15 -28 -18 -33 -5 -14 36 21
42 17 48 -30 49 -40 1 -45 9 -18 29 11 8 18 25 17 43 -1 35 -15 35 -62 -1 -35
-26 -42 -22 -18 10 8 11 15 29 15 39 0 19 -1 20 -20 2 -19 -18 -20 -17 -20 7
0 14 7 31 15 38 8 7 15 16 15 21 0 19 -38 1 -72 -34 -40 -41 -63 -48 -53 -17
4 11 3 20 -2 19 -21 -4 -47 2 -38 9 6 4 11 19 12 35 1 21 -3 27 -18 27 -23 0
-25 15 -4 24 16 6 21 36 6 36 -5 0 -16 -11 -25 -25 -20 -30 -56 -34 -56 -6 0
12 9 23 23 27 12 3 31 16 42 27 16 18 17 20 2 14 -14 -5 -17 0 -17 28 0 40
-14 44 -47 13 l-23 -21 -23 24 c-32 33 -39 56 -21 73 12 13 11 17 -8 30 -17
12 -20 18 -10 28 7 7 12 17 12 24 0 21 -40 3 -63 -27 -15 -21 -24 -26 -31 -19
-8 8 -5 16 10 28 12 9 24 29 28 45 7 30 -9 38 -19 8 -6 -20 -31 -35 -39 -23
-7 13 13 52 27 52 14 0 37 40 37 65 0 23 -16 18 -45 -13 -19 -21 -34 -28 -51
-24 -29 5 -30 12 -5 43 32 41 35 81 9 114 -13 16 -21 38 -20 49 4 19 3 19 -30
-1 -42 -25 -68 -12 -64 29 4 32 -1 40 -37 56 -15 7 -26 16 -22 21 3 5 -1 29
-10 53 -20 59 -19 68 10 68 16 0 28 7 31 18 3 9 10 25 15 35 11 21 10 21 -32
3 -50 -21 -65 -5 -62 62 3 54 -5 64 -28 36 -12 -14 -14 -14 -20 3 -4 13 2 23
22 35 16 10 29 26 29 37 0 11 5 23 10 26 16 10 12 35 -4 29 -8 -3 -24 0 -36 6
-18 9 -24 9 -30 0 -6 -9 -9 -9 -15 -1 -7 12 14 45 23 36 7 -7 32 44 32 66 0
12 -7 19 -20 19 -17 0 -19 3 -11 18 7 13 6 27 -5 47 -13 26 -13 30 1 37 18 11
20 29 3 25 -7 -1 -12 4 -11 11 2 6 -4 12 -13 12 -24 0 -108 -22 -120 -32 -7
-5 -14 -3 -17 6 -3 8 -22 22 -41 31 -38 18 -45 32 -21 41 8 4 15 10 15 15 0
13 -27 11 -48 -2 -14 -9 -26 -8 -53 4 -19 9 -54 21 -79 28 -25 7 -58 21 -73
32 -22 15 -31 16 -42 7 -15 -12 -106 -15 -397 -11 -82 1 -148 6 -148 10 0 14
-54 20 -62 8 -10 -16 -178 -23 -178 -8 0 6 5 11 10 11 6 0 10 5 10 11 0 7 -11
4 -26 -6 -21 -14 -28 -14 -34 -4 -7 10 -12 10 -26 -2 -13 -11 -18 -11 -21 -2
-4 10 -10 10 -25 2 -22 -12 -139 -20 -175 -12 -14 3 -20 10 -16 19 6 17 -1 18
-28 4 -15 -9 -21 -7 -25 5 -9 21 -63 19 -99 -5 -33 -22 -71 -27 -59 -8 5 7 0
9 -14 6 -13 -4 -23 0 -26 8 -8 20 -33 17 -73 -7 -36 -22 -54 -20 -34 5 19 23
-16 29 -39 6 -11 -11 -29 -20 -41 -20 -19 0 -49 21 -49 34 0 10 48 7 55 -4 7
-11 35 -2 35 11 0 5 -7 9 -15 9 -8 0 -15 5 -15 10 0 6 -16 10 -35 10 -19 0
-35 -5 -35 -11 0 -7 -9 -9 -22 -6 -16 4 -30 -1 -46 -18 -19 -20 -27 -22 -41
-13 -17 10 -17 13 8 34 42 38 4 28 -43 -11 -24 -19 -52 -35 -62 -34 -10 0 -14
3 -7 5 29 12 -1 29 -51 29 -45 0 -60 -5 -83 -26 -26 -25 -33 -26 -108 -22 -44
2 -106 3 -137 3 -32 0 -58 4 -58 9 0 5 -10 8 -22 5 -13 -3 -61 -6 -107 -8 -63
-2 -78 0 -62 8 19 8 22 15 17 44 -7 45 -11 48 -43 33 -26 -12 -26 -14 -10 -25
22 -17 22 -25 -5 -47 -33 -30 -50 -25 -32 9 13 25 12 27 -7 30 -33 6 -49 -5
-49 -33 0 -24 -2 -25 -71 -25 -66 0 -71 1 -66 20 7 27 -26 27 -75 0 -20 -11
-40 -15 -43 -10 -3 5 -1 11 5 15 20 12 9 25 -22 25 -17 0 -41 -9 -52 -19 -25
-22 -120 -38 -131 -22 -8 14 -67 14 -98 0 -16 -7 -31 -8 -42 -2 -14 8 -10 14
27 38 26 17 37 30 29 33 -7 2 -25 -5 -40 -16 -24 -17 -31 -18 -56 -7 -20 8
-36 9 -48 3 -27 -14 -30 -5 -7 24 10 14 17 28 13 32 -7 6 -70 -37 -90 -62 -10
-12 -15 -9 -32 19 -12 19 -18 42 -15 51 6 21 0 22 -27 8 -13 -8 -19 -7 -19 0
0 6 -8 10 -17 8 -10 -2 -18 -12 -18 -23 0 -15 -6 -19 -22 -18 -17 2 -24 -4
-29 -21 -7 -29 -87 -57 -107 -37 -6 6 -17 11 -24 11 -17 0 -17 -27 0 -33 6 -3
-23 -5 -65 -5 -78 1 -90 6 -64 27 10 8 21 8 40 1 36 -13 35 -13 33 10 -1 12
-11 23 -24 26 -13 4 -20 11 -17 16 3 5 -2 9 -12 8 -41 -5 -56 0 -50 15 4 11
-1 15 -19 15 -28 0 -43 19 -25 30 9 6 7 11 -8 19 -28 15 -42 14 -42 -4z
m-2510 -10480 c0 -18 11 -19 29 -2 11 10 13 8 8 -10 -3 -13 -1 -26 4 -29 5 -3
7 -10 4 -15 -4 -5 1 -9 9 -9 26 0 30 -1 43 -12 15 -12 7 -31 -9 -22 -6 4 3
-14 20 -39 18 -25 41 -49 53 -52 11 -4 18 -12 16 -18 -4 -13 17 -35 63 -64 19
-12 34 -25 32 -28 -2 -3 -1 -19 3 -35 5 -21 12 -30 23 -28 12 2 16 -3 14 -16
-2 -10 1 -15 6 -12 10 6 62 -62 62 -82 0 -7 9 -12 20 -12 24 0 40 -28 40 -71
0 -25 -3 -29 -13 -20 -8 6 -16 8 -20 5 -3 -3 -11 4 -17 17 -7 12 -26 34 -42
47 -18 15 -27 31 -23 40 4 11 2 12 -8 4 -15 -13 -43 1 -33 16 4 6 -6 22 -21
36 -15 14 -23 26 -18 26 6 1 -5 7 -24 16 -19 8 -31 17 -28 20 3 3 -9 19 -26
36 -18 17 -31 37 -29 45 2 8 -6 17 -17 20 -12 3 -21 14 -21 25 0 11 -14 31
-30 45 -17 14 -29 28 -26 31 11 11 -16 41 -42 47 -27 5 -28 8 -28 60 1 38 5
55 13 55 7 0 13 -7 13 -15z m484 -602 c4 -5 11 -8 15 -8 24 0 55 -57 40 -72
-7 -7 1 -21 22 -42 34 -35 41 -34 45 5 6 51 11 57 38 37 22 -17 27 -41 5 -28
-5 4 -9 3 -9 0 0 -11 54 -50 65 -48 6 2 25 -10 43 -26 32 -30 43 -48 20 -35
-9 5 -10 4 -3 -4 6 -6 19 -12 30 -14 20 -3 29 -10 96 -70 63 -57 105 -92 133
-113 15 -11 37 -28 49 -39 12 -10 47 -37 77 -60 62 -46 107 -86 100 -87 -3 0
-12 -2 -21 -4 -10 -2 -22 8 -30 21 -12 23 -29 32 -29 16 0 -20 49 -54 68 -48
11 4 23 2 27 -4 3 -5 17 -10 31 -10 13 0 33 -9 43 -19 11 -11 34 -27 50 -36
17 -8 31 -20 31 -26 0 -6 4 -8 9 -4 5 3 16 -3 23 -13 7 -10 28 -24 46 -31 18
-8 42 -25 52 -39 17 -20 18 -28 8 -41 -12 -14 -11 -14 5 -2 15 12 23 11 57 -4
22 -10 37 -22 34 -26 -3 -5 8 -11 23 -14 42 -10 73 -27 67 -37 -3 -5 -12 -7
-20 -4 -8 3 -11 0 -7 -10 3 -9 12 -13 22 -8 9 3 25 8 36 11 l20 4 -20 -16
c-19 -16 -18 -16 20 -10 l40 6 -23 -18 c-13 -10 -20 -22 -16 -26 4 -4 14 -1
23 7 18 15 62 6 95 -19 17 -13 17 -15 2 -30 -21 -22 -20 -23 9 -17 14 2 25 8
25 13 0 5 7 9 15 9 8 0 15 -8 15 -19 0 -10 12 -27 28 -36 l27 -18 -19 22 c-24
27 -18 34 14 16 14 -7 42 -22 62 -32 28 -14 35 -22 28 -33 -6 -8 -10 -19 -10
-25 1 -5 5 -3 10 6 6 11 18 15 36 11 24 -4 189 -80 224 -102 8 -6 25 -14 37
-19 11 -6 24 -15 28 -20 3 -6 17 -11 30 -11 13 0 28 -6 32 -13 4 -8 31 -19 58
-26 28 -7 58 -15 68 -18 9 -2 14 -9 11 -15 -4 -6 -2 -8 4 -5 5 4 21 3 34 -2
l23 -9 -25 -10 c-22 -10 -23 -11 -4 -11 11 -1 24 -4 28 -8 4 -4 30 -8 58 -10
50 -2 74 -12 51 -20 -7 -3 -13 -9 -13 -14 0 -13 34 -11 47 2 14 14 36 2 29
-16 -2 -7 1 -16 9 -19 9 -3 12 0 8 10 -8 21 17 17 72 -11 27 -13 52 -22 56
-19 4 2 20 -1 36 -8 15 -6 33 -10 40 -9 6 1 14 -3 18 -9 3 -5 15 -10 26 -10
25 0 24 -15 -1 -33 -21 -14 -20 -15 7 -22 40 -12 45 -12 77 -3 30 8 105 -8
117 -25 3 -5 40 -10 81 -11 41 -2 81 -7 89 -12 17 -11 34 -12 232 -13 98 0
187 5 235 14 130 24 465 44 412 25 -21 -8 -20 -9 13 -5 37 4 60 19 64 43 2 6
-2 12 -7 12 -6 0 -1 9 10 20 23 23 99 52 113 43 6 -3 7 -1 3 5 -4 7 -1 12 8
12 8 0 21 8 28 17 16 22 38 27 38 9 0 -11 12 -9 58 6 31 10 69 20 84 21 16 1
28 5 28 10 0 4 18 7 40 7 27 0 40 4 40 14 0 16 163 81 179 71 6 -3 14 1 17 9
3 9 10 13 15 10 5 -3 9 -1 9 4 0 14 152 71 172 64 5 -1 7 4 5 11 -1 6 6 11 15
11 10 -1 15 2 12 7 -2 5 8 11 23 15 15 3 38 13 51 21 13 8 30 12 37 9 8 -3 17
-1 20 4 3 4 -1 11 -7 13 -7 3 -2 6 12 8 14 1 30 3 35 4 6 2 15 3 20 4 6 0 19
15 29 32 13 21 24 29 36 26 10 -3 27 1 37 8 10 7 28 15 38 17 11 1 28 11 37
21 9 10 19 17 22 16 19 -5 66 13 66 26 0 8 8 15 18 15 9 1 39 2 65 4 40 3 48
1 45 -13 -2 -10 -13 -16 -29 -16 -15 -1 -34 -9 -43 -18 -10 -9 -28 -20 -42
-23 -13 -3 -22 -9 -19 -14 2 -4 -7 -12 -20 -18 -16 -7 -23 -17 -19 -27 3 -8 2
-16 -2 -16 -5 -1 -22 -3 -37 -5 -44 -5 -92 -23 -113 -42 -23 -20 -89 -52 -109
-52 -8 0 -15 -5 -15 -11 0 -5 -4 -8 -9 -5 -5 3 -14 -1 -21 -9 -7 -8 -17 -15
-22 -15 -5 0 -26 -11 -46 -25 -35 -24 -38 -24 -51 -8 -13 17 -13 17 -8 0 5
-13 0 -20 -19 -27 -14 -6 -32 -16 -39 -24 -8 -7 -34 -20 -59 -27 -26 -7 -46
-19 -46 -25 0 -15 -33 -29 -38 -16 -3 10 -55 -11 -82 -33 -25 -21 -70 -27 -88
-13 -15 12 -16 11 -3 -5 11 -14 11 -17 0 -19 -26 -2 -34 -5 -74 -23 -22 -10
-47 -18 -56 -16 -9 1 -22 -5 -29 -14 -7 -9 -21 -13 -35 -9 -13 3 -26 1 -29 -5
-4 -6 -16 -11 -26 -11 -25 0 -80 -32 -80 -47 0 -16 -52 -17 -67 -2 -8 8 -14 6
-22 -9 -7 -14 -17 -18 -37 -14 -15 3 -29 0 -34 -7 -4 -7 -23 -14 -43 -15 -20
-2 -43 -9 -52 -16 -12 -10 -15 -10 -15 1 0 10 -3 10 -12 1 -7 -7 -22 -12 -35
-12 -13 0 -23 -5 -23 -11 0 -6 -6 -9 -14 -6 -8 3 -17 -1 -20 -9 -3 -9 -14 -14
-23 -13 -10 1 -26 -2 -37 -6 -12 -5 -21 -3 -26 5 -7 11 -11 11 -23 1 -12 -9
-17 -9 -22 0 -6 8 -10 8 -16 -3 -6 -10 -22 -14 -54 -12 -32 2 -45 -1 -45 -11
0 -8 -9 -17 -20 -20 -11 -3 -20 -12 -20 -18 0 -7 -7 -4 -14 5 -14 20 -107 35
-128 21 -21 -12 -46 -14 -53 -2 -5 7 -14 4 -26 -7 -13 -12 -19 -13 -19 -4 0 7
-8 19 -17 26 -14 10 -24 10 -48 0 -37 -16 -66 -12 -78 10 -6 10 -12 12 -16 6
-11 -18 -88 -22 -102 -5 -7 8 -21 12 -32 9 -10 -2 -31 0 -46 6 -40 17 -61 19
-61 6 0 -7 -7 -5 -17 4 -10 9 -24 13 -30 11 -7 -3 -15 2 -18 9 -6 15 -48 18
-61 6 -12 -13 -49 -9 -70 7 -10 8 -29 15 -41 15 -12 0 -27 9 -33 20 -6 11 -17
20 -25 20 -7 0 -15 5 -17 10 -2 6 -14 11 -28 12 -14 1 -31 6 -38 11 -7 5 -34
11 -60 12 -63 4 -72 6 -109 33 -18 13 -41 22 -50 20 -11 -2 -17 2 -15 10 2 9
-4 12 -17 7 -20 -6 -35 15 -40 56 0 5 -5 8 -11 4 -5 -3 -7 -12 -4 -19 10 -26
-14 -26 -34 -1 -11 14 -27 25 -36 25 -22 0 -75 27 -103 53 -13 11 -23 16 -23
9 0 -13 -54 0 -76 19 -8 6 -14 8 -14 3 0 -5 -5 -1 -11 9 -6 9 -14 15 -19 12
-5 -3 -11 -1 -15 5 -4 6 -11 8 -16 5 -5 -4 -12 0 -15 9 -3 8 -19 18 -36 21
-16 4 -39 16 -49 26 -14 14 -24 17 -36 11 -20 -12 -104 13 -116 33 -4 8 -14
15 -21 15 -7 0 -22 9 -34 20 -12 12 -22 17 -22 12 0 -5 -10 -8 -22 -7 -18 2
-22 8 -20 25 2 18 -1 20 -11 11 -11 -8 -19 -5 -37 14 -13 13 -27 22 -31 19 -5
-3 -9 -1 -9 4 0 5 -11 8 -23 7 -15 -2 -36 8 -57 28 -19 17 -38 32 -44 33 -59
11 -81 16 -85 20 -2 2 1 4 7 4 7 0 12 5 12 11 0 5 -5 7 -10 4 -6 -3 -13 1 -16
9 -5 12 -11 13 -24 6 -28 -15 -45 -13 -31 4 6 7 9 21 5 29 -5 15 -8 15 -21 2
-18 -19 -39 -9 -22 11 11 13 6 18 -14 15 -4 -1 -10 6 -13 14 -4 8 -11 15 -18
15 -6 0 -22 9 -36 20 -50 40 -99 68 -129 75 -17 4 -31 12 -31 18 0 15 -64 72
-81 72 -7 0 -19 11 -26 25 -7 14 -13 19 -13 12 0 -18 -25 -9 -25 9 -1 8 -6 13
-13 11 -7 -1 -15 5 -18 13 -3 8 -10 12 -15 9 -5 -3 -12 2 -15 10 -3 9 -13 16
-21 16 -8 0 -12 4 -8 10 3 5 -8 16 -25 25 -17 9 -28 20 -25 25 4 6 0 10 -7 10
-14 0 -102 74 -152 128 -16 17 -38 32 -48 32 -20 0 -60 58 -51 73 3 6 2 7 -3
4 -12 -7 -38 8 -40 23 -1 5 -2 15 -3 20 0 6 -7 10 -13 10 -7 0 -33 19 -59 43
-25 23 -65 58 -89 78 -39 32 -43 38 -31 53 11 13 11 16 0 17 -8 1 -21 2 -29 3
-8 0 -15 10 -15 21 0 12 6 19 14 17 8 -2 11 3 8 13 -7 16 4 20 17 8z"/>
<path d="M3530 1720 c0 -5 9 -14 20 -20 11 -6 20 -7 20 -3 0 5 -9 14 -20 21
-11 7 -20 8 -20 2z"/>
<path d="M3570 1676 c0 -2 8 -10 18 -17 15 -13 16 -12 3 4 -13 16 -21 21 -21
13z"/>
<path d="M3640 1597 c0 -2 14 -13 30 -25 17 -13 30 -19 30 -14 0 4 -13 16 -30
25 -16 10 -30 16 -30 14z"/>
<path d="M3821 1459 c-1 -16 29 -49 44 -49 4 0 -1 8 -12 18 -11 9 -22 24 -26
32 -5 13 -6 13 -6 -1z"/>
<path d="M3896 1377 c3 -10 9 -15 12 -12 3 3 0 11 -7 18 -10 9 -11 8 -5 -6z"/>
<path d="M3937 1356 c-3 -8 -2 -18 3 -21 13 -8 20 9 11 24 -6 10 -10 9 -14 -3z"/>
<path d="M8139 733 c-13 -17 -13 -17 6 -3 11 8 22 16 24 17 2 2 0 3 -6 3 -6 0
-17 -8 -24 -17z"/>
<path d="M7770 570 c0 -5 7 -10 15 -10 8 0 15 5 15 10 0 6 -7 10 -15 10 -8 0
-15 -4 -15 -10z"/>
<path d="M7720 550 c0 -5 5 -10 11 -10 5 0 7 5 4 10 -3 6 -8 10 -11 10 -2 0
-4 -4 -4 -10z"/>
<path d="M5710 476 c0 -2 7 -7 16 -10 8 -3 12 -2 9 4 -6 10 -25 14 -25 6z"/>
<path d="M5880 409 c0 -5 5 -7 10 -4 6 3 10 8 10 11 0 2 -4 4 -10 4 -5 0 -10
-5 -10 -11z"/>
<path d="M6492 291 c-11 -7 -11 -9 0 -14 9 -3 15 1 15 9 0 8 -1 14 -1 14 -1 0
-7 -4 -14 -9z"/>
<path d="M7178 12937 c-30 -12 -35 -22 -17 -33 6 -3 23 5 37 20 28 28 24 30
-20 13z"/>
<path d="M4659 12930 c-15 -10 -1 -16 40 -15 19 0 36 6 38 12 5 14 -57 15 -78
3z"/>
<path d="M4987 12934 c-13 -13 -7 -24 14 -24 11 0 19 5 17 12 -5 14 -22 21
-31 12z"/>
<path d="M6190 12920 c-8 -5 -12 -12 -9 -15 8 -8 39 5 39 16 0 11 -11 11 -30
-1z"/>
<path d="M9017 12924 c-13 -13 -7 -24 14 -24 11 0 19 5 17 12 -5 14 -22 21
-31 12z"/>
<path d="M7045 12910 c-3 -5 -1 -10 4 -10 6 0 11 5 11 10 0 6 -2 10 -4 10 -3
0 -8 -4 -11 -10z"/>
<path d="M8180 12905 c-11 -13 -10 -14 4 -9 9 3 16 10 16 15 0 13 -6 11 -20
-6z"/>
<path d="M10017 11833 c-4 -3 -7 -12 -7 -20 0 -11 4 -11 20 -3 11 6 18 15 15
21 -7 11 -19 12 -28 2z"/>
<path d="M10145 11530 c4 -6 11 -8 16 -5 14 9 11 15 -7 15 -8 0 -12 -5 -9 -10z"/>
<path d="M10291 11438 c13 -24 35 -23 42 2 4 17 1 20 -23 18 -24 -2 -27 -5
-19 -20z"/>
<path d="M10564 11229 c-3 -6 -1 -16 5 -22 8 -8 11 -5 11 11 0 24 -5 28 -16
11z"/>
<path d="M2785 11200 c3 -5 10 -10 16 -10 5 0 9 5 9 10 0 6 -7 10 -16 10 -8 0
-12 -4 -9 -10z"/>
<path d="M2440 11000 c-7 -13 -7 -20 -1 -20 6 0 15 9 21 20 7 13 7 20 1 20 -6
0 -15 -9 -21 -20z"/>
<path d="M2487 10949 c-19 -11 -14 -29 8 -29 14 0 28 27 17 34 -4 2 -15 0 -25
-5z"/>
<path d="M10938 10903 c7 -3 16 -2 19 1 4 3 -2 6 -13 5 -11 0 -14 -3 -6 -6z"/>
<path d="M2143 10864 c-20 -21 -16 -42 3 -22 9 9 15 21 13 26 -2 6 -9 4 -16
-4z"/>
<path d="M2185 10789 c-4 -6 -4 -13 -1 -16 8 -8 36 5 36 17 0 13 -27 13 -35
-1z"/>
<path d="M11120 10735 c-10 -12 -10 -15 3 -15 8 0 18 -11 21 -25 5 -18 13 -25
31 -25 14 0 25 5 25 10 0 6 0 12 0 15 0 3 -1 4 -3 3 -2 -2 -15 9 -29 25 -29
31 -31 32 -48 12z"/>
<path d="M1670 10650 c0 -5 7 -7 15 -4 8 4 15 8 15 10 0 2 -7 4 -15 4 -8 0
-15 -4 -15 -10z"/>
<path d="M1801 10628 c8 -14 14 -16 29 -8 33 18 31 28 -4 27 -30 -1 -33 -3
-25 -19z"/>
<path d="M1694 10626 c-15 -12 -16 -17 -7 -27 10 -10 17 -9 33 6 36 33 14 50
-26 21z"/>
<path d="M857 8013 c-10 -9 -9 -23 2 -23 5 0 11 7 15 15 5 15 -5 20 -17 8z"/>
<path d="M950 7980 c-8 -5 -12 -12 -9 -15 8 -8 39 5 39 16 0 11 -11 11 -30 -1z"/>
<path d="M12222 7300 c0 -14 2 -19 5 -12 2 6 2 18 0 25 -3 6 -5 1 -5 -13z"/>
<path d="M1085 6799 c-11 -17 1 -21 15 -4 8 9 8 15 2 15 -6 0 -14 -5 -17 -11z"/>
<path d="M12045 6759 c-4 -6 -5 -12 -2 -15 2 -3 7 2 10 11 7 17 1 20 -8 4z"/>
<path d="M1128 5888 c9 -9 15 -9 24 0 9 9 7 12 -12 12 -19 0 -21 -3 -12 -12z"/>
<path d="M11830 5495 c0 -8 2 -15 4 -15 2 0 6 7 10 15 3 8 1 15 -4 15 -6 0
-10 -7 -10 -15z"/>
<path d="M11736 5123 c-6 -14 -5 -15 5 -6 7 7 10 15 7 18 -3 3 -9 -2 -12 -12z"/>
<path d="M11577 4443 c-12 -11 -8 -23 8 -23 8 0 15 7 15 15 0 16 -12 20 -23 8z"/>
<path d="M2601 2564 c0 -11 3 -14 6 -6 3 7 2 16 -1 19 -3 4 -6 -2 -5 -13z"/>
</g>
</svg>
